# xmcd
#
# Track frame offsets:
#	150
#	15190
#	30719
#	46249
#	57392
#	76333
#	87917
#	99292
#	110905
#	123198
#	146953
#	160450
#	174290
#	188347
#	200563
#	213110
#
# Disc length: 2970 seconds
#
# Revision: 0
# Processed by: cddbd v1.5.2PL0 Copyright (c) Steve Scherf et al.
# Submitted via: dBpowerAMP V4.0
#
DISCID=cc0b9810
DTITLE=Carter Brothers - Blues on Tour 65-69 CD1
DYEAR=1900
DGENRE=
TTITLE0=Do the flo show
TTITLE1=Southern country boy
TTITLE2=Booze in the bottle
TTITLE3=Stop talking in your sleep
TTITLE4=I've been mistreated for five long years
TTITLE5=I dont care
TTITLE6=Booby strap baby
TTITLE7=Shes so fine so glad shes mine
TTITLE8=Dont pity me
TTITLE9=Blues on tour (pts 1 and 2)
TTITLE10=Why baby why pt 1
TTITLE11=Why baby why pt 2
TTITLE12=Queen bee
TTITLE13=Theres trouble brewin
TTITLE14=What you say big mama
TTITLE15=Roast possum
EXTD=the genre is soul blues, please stop sayig my choice of genre is wrong all the time\noh and u fucking rule by the way
EXTT0=
EXTT1=
EXTT2=
EXTT3=
EXTT4=
EXTT5=
EXTT6=
EXTT7=
EXTT8=
EXTT9=
EXTT10=
EXTT11=
EXTT12=
EXTT13=
EXTT14=
EXTT15=
PLAYORDER=
